<?xml version="1.0" encoding="UTF-8"?>
<!DOCTYPE svg PUBLIC "-//W3C//DTD SVG 1.1//EN" "http://www.w3.org/Graphics/SVG/1.1/DTD/svg11.dtd">
<!-- Creator: CorelDRAW -->
<svg xmlns="http://www.w3.org/2000/svg" xml:space="preserve" width="16.9333mm" height="16.9333mm" version="1.1" style="shape-rendering:geometricPrecision; text-rendering:geometricPrecision; image-rendering:optimizeQuality; fill-rule:evenodd; clip-rule:evenodd"
viewBox="0 0 24.41 24.41"
 xmlns:xlink="http://www.w3.org/1999/xlink"
 xmlns:xodm="http://www.corel.com/coreldraw/odm/2003">
 <defs>
  <style type="text/css">
   <![CDATA[
    .fil1 {fill:none}
    .fil0 {fill:white}
   ]]>
  </style>
 </defs>
 <g id="Слой_x0020_1">
  <metadata id="CorelCorpID_0Corel-Layer"/>
  <g id="_2220271084000">
   <path class="fil0" d="M17.06 5.71c0.47,0.49 0.98,1.55 1.12,1.64 0.06,0.18 0.33,0.65 0.45,0.76 0.48,-0.35 0.98,-0.36 1.56,-0.22 0.24,0.15 0.39,0.18 0.58,0.39 0.76,0.84 2.04,3.31 2.78,4.55 0.13,0.22 0.24,0.42 0.33,0.63 0.13,0.68 0.02,0.78 -0.22,1.4 -0.32,0.3 -0.38,0.37 -0.77,0.6 -2.26,1.36 -4.53,2.77 -6.8,4.11 -0.46,0.27 -0.93,0.65 -1.7,0.45 -0.72,-0.19 -0.8,-0.58 -1.16,-1.04 -0.12,-0.31 -2.08,-3.42 -2.08,-3.43 -0.4,-0.74 -0.94,-1.31 -0.65,-2.06l0.11 -0.19c0.21,-0.43 0.37,-0.54 0.78,-0.83 -0.04,-0.17 -0.5,-0.88 -0.6,-1.04 -0.23,-0.36 -0.54,-0.88 -0.7,-1.27 -0.1,-0.24 -0.14,-0.37 -0.2,-0.62l2.14 -0.16c0.11,0.14 0.93,1.64 1.21,1.99 1.14,-0.53 2.43,-1.52 3.58,-2.14 -0.07,-0.22 -0.61,-1.06 -0.77,-1.3 -0.24,-0.53 -0.73,-1.12 -1.25,-1.32 -0.97,-0.28 -1.45,-0.21 -2.16,0.31 -0.25,0.18 -2.12,0.21 -2.63,0.27 0.07,-0.27 0.15,-0.41 0.26,-0.63 0.21,-0.38 0.45,-0.72 0.76,-1.02 0.67,-0.66 1.63,-1.04 2.54,-1.18 1.33,-0.14 2.61,0.38 3.52,1.34z"/>
   <path class="fil0" d="M2.1 10.7c-0.17,0.94 1.33,2.48 2.26,2.08 0.43,-0.09 1.3,-1.09 1.64,-1.43 0.33,-0.33 1.31,-1.19 1.4,-1.63l1.64 -0.14c-0.05,0.51 -0.25,1.12 -0.57,1.53 -0.17,0.21 -0.3,0.32 -0.47,0.49 -0.5,0.49 -1.95,2.03 -2.42,2.34 -0.21,0.14 -0.36,0.19 -0.57,0.31 -0.62,0.12 -0.75,0.17 -1.41,0.16 -0.49,-0.1 -0.86,-0.2 -1.27,-0.51 -0.28,-0.2 -0.39,-0.35 -0.62,-0.57 -0.71,-0.71 -1.17,-1.24 -1.23,-2.29 -0.06,-1.06 0.43,-1.72 1.03,-2.35l1.7 -1.69c0.28,-0.28 0.54,-0.58 0.88,-0.77 0.34,-0.18 0.74,-0.35 1.14,-0.37l0.5 -0c0.67,0.04 1.04,0.23 1.49,0.53 0.23,0.15 0.31,0.28 0.5,0.47 0.11,0.11 0.39,0.39 0.46,0.44 -0.39,0.07 -0.94,0.08 -1.35,0.11 -0.23,0.02 -0.46,0.04 -0.69,0.05 -0.26,0.02 -0.46,-0.03 -0.69,-0.02 -0.45,0.02 -0.68,0.24 -0.94,0.5 -0.51,0.51 -2.32,2.11 -2.43,2.75z"/>
   <path class="fil0" d="M13.31 8.85c-0.46,0.18 -2.58,0.24 -3.26,0.3 -1.44,0.14 -3.09,0.3 -4.55,0.33 -0.47,-0.23 -0.45,-0.22 -0.64,-0.62 -0.05,-0.43 0.13,-0.75 0.41,-0.89 0.3,-0.15 6.17,-0.55 6.93,-0.59 0.65,-0.03 1.07,-0.17 1.41,0.28 0.35,0.46 0.06,0.97 -0.31,1.17z"/>
  </g>
  <rect class="fil1" x="0" y="-0" width="24.41" height="24.41"/>
 </g>
</svg>
