<?xml version="1.0" encoding="UTF-8"?>
<!DOCTYPE svg PUBLIC "-//W3C//DTD SVG 1.1//EN" "http://www.w3.org/Graphics/SVG/1.1/DTD/svg11.dtd">
<!-- Creator: CorelDRAW -->
<svg xmlns="http://www.w3.org/2000/svg" xml:space="preserve" width="16.9333mm" height="16.9333mm" version="1.1" style="shape-rendering:geometricPrecision; text-rendering:geometricPrecision; image-rendering:optimizeQuality; fill-rule:evenodd; clip-rule:evenodd"
viewBox="0 0 24.31 24.31"
 xmlns:xlink="http://www.w3.org/1999/xlink"
 xmlns:xodm="http://www.corel.com/coreldraw/odm/2003">
 <defs>
  <style type="text/css">
   <![CDATA[
    .fil3 {fill:none}
    .fil2 {fill:black}
    .fil1 {fill:gray}
    .fil0 {fill:white}
   ]]>
  </style>
 </defs>
 <g id="Слой_x0020_1">
  <metadata id="CorelCorpID_0Corel-Layer"/>
  <g id="_2220266666704">
   <path class="fil0" d="M9.16 8.09c-1.03,0.16 -1.88,0.8 -2.68,1.25 -0.88,0.5 -4.41,2.47 -4.93,2.96 -0.61,0.59 -1.18,1.62 -0.99,2.88 0.16,1.1 2.07,3.99 2.7,5.14 0.34,0.63 1.09,1.97 1.52,2.43 0.58,0.62 1.62,1.17 2.87,1 0.95,-0.13 1.9,-0.82 2.65,-1.25 0.95,-0.54 4.34,-2.41 4.93,-2.96 0.62,-0.58 1.18,-1.61 1,-2.87 -0.14,-0.96 -0.82,-1.89 -1.25,-2.65 -0.55,-0.96 -2.4,-4.34 -2.97,-4.93 -0.6,-0.62 -1.58,-1.19 -2.84,-1zm-2.13 10.6c-1.66,0.43 -0.96,2.82 0.61,2.41 1.59,-0.42 0.96,-2.82 -0.61,-2.41zm0.98 -3.95c-0.58,0.18 -1.07,0.81 -0.8,1.58 0.18,0.54 0.81,1.04 1.58,0.77 1.49,-0.51 0.84,-2.86 -0.78,-2.36zm4.06 1.04c-0.75,0.21 -1.09,0.86 -0.91,1.53 0.41,1.56 2.83,0.98 2.41,-0.65 -0.15,-0.57 -0.77,-1.08 -1.49,-0.88zm-7.95 -2.13c-0.6,0.16 -1.13,0.73 -0.91,1.52 0.43,1.58 2.84,0.96 2.41,-0.64 -0.16,-0.58 -0.77,-1.07 -1.5,-0.88zm5.04 -2.91c-1.67,0.43 -0.96,2.82 0.61,2.41 0.56,-0.15 1.09,-0.76 0.89,-1.53 -0.16,-0.58 -0.76,-1.07 -1.5,-0.88z"/>
   <path class="fil0" d="M13.8 0.53c-1.37,0.1 -2.41,1 -2.82,2.02 -0.22,0.54 -0.38,1.3 -0.54,1.9 -0.13,0.47 -0.52,1.51 -0.32,1.95 0.3,0.66 1.23,0.6 1.52,-0.03 0.39,-0.86 0.59,-3.02 1.2,-3.68 0.38,-0.41 1.08,-0.61 1.82,-0.41l5.77 1.55c0.8,0.21 1.18,0.36 1.5,0.94 0.39,0.69 0.13,1.27 -0.06,1.98 -0.17,0.64 -0.35,1.29 -0.52,1.93 -0.24,0.9 -0.78,3.11 -1.03,3.85 -0.18,0.54 -0.64,0.99 -1.28,1.1 -0.81,0.14 -1.42,-0.48 -2.03,-0.11 -0.58,0.35 -0.48,1.23 0.2,1.49 2.02,0.78 4.06,-0.03 4.71,-1.99l1.03 -3.85c0.27,-1.04 0.95,-2.95 0.82,-4 -0.16,-1.34 -1.1,-2.34 -2.16,-2.73l-3.84 -1.04c-0.98,-0.26 -2.99,-0.94 -3.96,-0.87z"/>
   <path class="fil1" d="M16.04 6.72c-1.57,0.48 -0.89,2.84 0.71,2.38 1.54,-0.44 0.89,-2.86 -0.71,-2.38z"/>
   <path class="fil0" d="M18.22 10.25c-1.63,0.33 -1.17,2.73 0.46,2.45 0.61,-0.11 1.13,-0.73 0.99,-1.47 -0.11,-0.59 -0.7,-1.13 -1.45,-0.98z"/>
   <path class="fil0" d="M14.04 3.15c-1.64,0.45 -0.95,2.83 0.62,2.41 0.57,-0.15 1.09,-0.77 0.89,-1.52 -0.15,-0.56 -0.74,-1.1 -1.5,-0.89z"/>
   <path class="fil0" d="M16.04 6.72c-1.57,0.48 -0.89,2.84 0.71,2.38 1.54,-0.44 0.89,-2.86 -0.71,-2.38z"/>
   <path class="fil2" d="M9.1 10.73c-1.6,0.48 -0.91,2.88 0.72,2.42 1.57,-0.45 0.91,-2.91 -0.72,-2.42z"/>
   <path class="fil2" d="M4.06 13.66c-1.6,0.48 -0.91,2.88 0.72,2.42 1.57,-0.45 0.91,-2.91 -0.72,-2.42z"/>
   <path class="fil2" d="M8.02 14.69c-1.62,0.49 -0.92,2.92 0.73,2.44 1.58,-0.45 0.92,-2.94 -0.73,-2.44z"/>
   <path class="fil2" d="M12.03 15.77c-1.61,0.49 -0.91,2.91 0.73,2.44 1.58,-0.45 0.91,-2.93 -0.73,-2.44z"/>
   <path class="fil2" d="M6.97 18.66c-1.62,0.49 -0.92,2.92 0.73,2.44 1.58,-0.45 0.92,-2.94 -0.73,-2.44z"/>
  </g>
  <rect class="fil3" x="0" y="-0" width="24.31" height="24.31"/>
 </g>
</svg>
