<?xml version="1.0" encoding="UTF-8"?>
<!DOCTYPE svg PUBLIC "-//W3C//DTD SVG 1.1//EN" "http://www.w3.org/Graphics/SVG/1.1/DTD/svg11.dtd">
<!-- Creator: CorelDRAW -->
<svg xmlns="http://www.w3.org/2000/svg" xml:space="preserve" width="16.9333mm" height="16.9333mm" version="1.1" style="shape-rendering:geometricPrecision; text-rendering:geometricPrecision; image-rendering:optimizeQuality; fill-rule:evenodd; clip-rule:evenodd"
viewBox="0 0 25.45 25.45"
 xmlns:xlink="http://www.w3.org/1999/xlink"
 xmlns:xodm="http://www.corel.com/coreldraw/odm/2003">
 <defs>
  <style type="text/css">
   <![CDATA[
    .fil1 {fill:none}
    .fil0 {fill:white}
   ]]>
  </style>
 </defs>
 <g id="Слой_x0020_1">
  <metadata id="CorelCorpID_0Corel-Layer"/>
  <g id="_2219531966288">
   <path class="fil0" d="M13 3.36c-0.76,-0.51 -1.36,-0.61 -2.45,-0.57 -0.87,0.03 -1.74,0.23 -2.53,0.47 -1.19,0.36 -3.12,1.17 -3.61,2.37 1.55,-0.67 3.79,-2.07 5.95,-1.19 0.26,0.11 0.57,0.24 0.74,0.47 -2.15,-0.12 -4.53,0.47 -6.1,1.44 -0.77,0.48 -1.45,1.07 -1.89,1.9 -0.43,0.81 -0.59,2.31 -0.29,3.24 0.04,-0.04 1.07,-1.64 1.57,-2.27 0.35,-0.45 0.78,-0.82 1.18,-1.2 1.07,-0.98 3.59,-1.64 4.74,-1.47 -0.22,-0.02 -1.81,0.85 -2.05,1.01 -2.02,1.26 -3.79,3.08 -3.6,5.92 0.28,-0.25 0.83,-2.12 2.06,-3.47 0.24,-0.26 0.45,-0.44 0.68,-0.67l0.76 -0.65c0.48,-0.35 1.09,-0.76 1.71,-1.01 -0.46,0.77 -0.7,1.55 -0.86,2.57 -0.13,0.89 -0.25,2.37 -0.06,3.24 0.16,-0.26 0.23,-0.54 0.36,-0.82 0.71,-1.55 2.05,-4.33 3.35,-5.32 0.17,0.36 0.28,1.54 0.31,2.02 0.67,-0.05 1.31,-0.17 1.92,-0.38 -0.09,-0.53 -0.51,-1.38 -0.7,-1.92 0.84,0.29 1.4,0.72 2.04,1.19l1.19 1.19c1.11,1.5 1.92,3.09 2.02,5.31 0.42,-0.4 0.75,-2.48 0.78,-2.92 0.16,-2.77 -1.23,-4.52 -3.53,-5.71 -0.4,-0.21 -0.85,-0.36 -1.24,-0.56 0.94,-0.65 2.99,-1.2 4.4,-1.14 1.6,0.07 3.21,0.55 4.22,1.3 -0.36,-1.87 -1.74,-2.79 -3.52,-2.99 -2.02,-0.24 -3.93,0.3 -5.72,0.83 0.43,-1.33 2.13,-2.19 3.35,-2.72l1.52 -0.58c-3.82,-0.4 -4.75,0.62 -6.56,2.93l-0.16 0.17z"/>
   <path class="fil0" d="M1.35 25.26l22.13 0.01c-1.17,-0.96 -6.25,-1.99 -7.91,-2.21l0.24 -1.35c-2.59,0.24 -4.31,-0.35 -5.25,-0.32l-1 1.4c-0.16,0.21 -0.21,0.22 -0.59,0.27 -1.85,0.21 -6.59,1.33 -7.62,2.21z"/>
   <path class="fil0" d="M13.08 13.66c-0.08,0.61 -0.12,1.21 -0.23,1.83 -0.1,0.57 -0.26,1.14 -0.35,1.66 2.11,0.21 1.88,0.26 3.82,0.15 0.08,-0.82 -0.12,-2.76 -0.18,-3.64 -0.25,-0.05 -1.45,0.08 -2.31,0.02l-0.75 -0.01z"/>
   <path class="fil0" d="M11.05 20.6c0.76,0.07 4.43,0.57 4.87,0.2 0.22,-0.24 0.34,-2.15 0.38,-2.64 -1.59,0.05 -2.6,-0.03 -4.1,-0.18 -0.15,0.78 -0.89,1.95 -1.15,2.62z"/>
   <path class="fil0" d="M13.11 10.23l0.04 2.53c0.98,0.1 1.83,0.13 2.78,0.02 0.01,-0.42 -0.56,-2.59 -0.74,-2.94 -0.2,0.02 -1.88,0.34 -2.07,0.4z"/>
  </g>
  <rect class="fil1" x="0" y="-0" width="25.45" height="25.45"/>
 </g>
</svg>
