<?xml version="1.0" encoding="UTF-8"?>
<!DOCTYPE svg PUBLIC "-//W3C//DTD SVG 1.1//EN" "http://www.w3.org/Graphics/SVG/1.1/DTD/svg11.dtd">
<!-- Creator: CorelDRAW -->
<svg xmlns="http://www.w3.org/2000/svg" xml:space="preserve" width="16.9333mm" height="16.9333mm" version="1.1" style="shape-rendering:geometricPrecision; text-rendering:geometricPrecision; image-rendering:optimizeQuality; fill-rule:evenodd; clip-rule:evenodd"
viewBox="0 0 23.39 23.39"
 xmlns:xlink="http://www.w3.org/1999/xlink"
 xmlns:xodm="http://www.corel.com/coreldraw/odm/2003">
 <defs>
  <style type="text/css">
   <![CDATA[
    .fil3 {fill:none}
    .fil2 {fill:black}
    .fil0 {fill:gray}
    .fil1 {fill:white}
   ]]>
  </style>
 </defs>
 <g id="Слой_x0020_1">
  <metadata id="CorelCorpID_0Corel-Layer"/>
  <g id="_2220251585664">
   <path class="fil0" d="M2.78 12.03c-0.61,0.18 -0.75,0.43 -0.61,1.16 0.49,2.5 1.09,5.07 1.61,7.58 0.08,0.37 0.18,1.27 0.42,1.44 0.22,0.15 1.38,0.09 1.75,0.09l11 0c2.14,0 2.32,0.29 2.61,-1.1l1.58 -7.57c0.12,-0.59 0.26,-1.11 -0.18,-1.47 -0.44,-0.36 -2.8,-0.18 -3.54,-0.18 -0.83,0 -14.22,-0.09 -14.64,0.04zm8.65 4.53c-0.81,0.31 -0.39,1.63 0.51,1.25 0.78,-0.32 0.35,-1.58 -0.51,-1.25z"/>
   <path class="fil1" d="M11.27 1.1c-2.06,0.26 -3.79,2.07 -3.53,4.44 0.23,2.07 2.09,3.82 4.47,3.54 2.05,-0.24 3.8,-2.12 3.51,-4.49 -0.24,-2.03 -2.13,-3.78 -4.46,-3.49z"/>
   <path class="fil1" d="M5.65 11.4l12.18 0.01c-0.3,-0.67 -1.68,-1.69 -2.47,-2.05 -0.27,-0.12 -0.54,-0.21 -0.85,-0.28 -0.56,-0.14 -0.51,-0 -0.87,0.2 -1.08,0.6 -2.69,0.63 -3.78,0.06 -0.45,-0.23 -0.53,-0.44 -1.67,0.02 -0.52,0.21 -1.44,0.73 -1.76,1.08 -0.22,0.23 -0.72,0.72 -0.77,0.97z"/>
   <path class="fil1" d="M2.78 12.03c-0.61,0.18 -0.75,0.43 -0.61,1.16 0.49,2.5 1.09,5.07 1.61,7.58 0.08,0.37 0.18,1.27 0.42,1.44 0.22,0.15 1.38,0.09 1.75,0.09l11 0c2.14,0 2.32,0.29 2.61,-1.1l1.58 -7.57c0.12,-0.59 0.26,-1.11 -0.18,-1.47 -0.44,-0.36 -2.8,-0.18 -3.54,-0.18 -0.83,0 -14.22,-0.09 -14.64,0.04zm8.65 4.53c-0.81,0.31 -0.39,1.63 0.51,1.25 0.78,-0.32 0.35,-1.58 -0.51,-1.25z"/>
   <path class="fil2" d="M13.36 18.09c-0.13,-0.09 -0.21,-0.1 -0.36,-0.28 -0.28,-0.35 -0.24,-0.87 0.07,-1.19 0.06,-0.06 0.12,-0.1 0.18,-0.15 -0.02,-0.11 -0.26,-0.28 -0.4,-0.34 -0.35,-0.15 -0.58,-0.07 -0.9,0.05 -0.08,0.03 -0.19,0.09 -0.29,0.06 -0.19,-0.05 -0.35,-0.16 -0.57,-0.17 -0.44,-0.01 -0.76,0.26 -0.91,0.57 -0.19,0.38 -0.17,0.83 -0.06,1.26 0.1,0.38 0.28,0.7 0.5,0.98 0.44,0.54 0.69,0.2 1.02,0.14 0.29,-0.05 0.4,0.06 0.61,0.12 0.43,0.13 0.66,-0.2 0.88,-0.54 0.06,-0.09 0.22,-0.41 0.23,-0.51z"/>
   <path class="fil2" d="M11.69 16.01c0.25,0.04 0.5,-0.15 0.6,-0.27 0.14,-0.16 0.23,-0.38 0.22,-0.66 -0.18,-0.03 -0.46,0.15 -0.59,0.29 -0.14,0.15 -0.26,0.4 -0.24,0.65z"/>
  </g>
  <rect class="fil3" x="0" y="-0" width="23.39" height="23.39"/>
 </g>
</svg>
